<svg width="736" height="736" viewBox="0 0 736 736" fill="none" xmlns="http://www.w3.org/2000/svg">
<rect width="736" height="736" fill="white"/>
<rect x="592.25" y="592.25" width="63.5" height="63.5" stroke="black" stroke-width="0.5"/>
<rect x="80.25" y="592.25" width="63.5" height="63.5" stroke="black" stroke-width="0.5"/>
<rect x="144.25" y="592.25" width="63.5" height="63.5" stroke="black" stroke-width="0.5"/>
<rect x="208.25" y="592.25" width="63.5" height="63.5" stroke="black" stroke-width="0.5"/>
<rect x="272.25" y="592.25" width="63.5" height="63.5" stroke="black" stroke-width="0.5"/>
<rect x="336.25" y="592.25" width="63.5" height="63.5" stroke="black" stroke-width="0.5"/>
<rect x="400.25" y="592.25" width="63.5" height="63.5" stroke="black" stroke-width="0.5"/>
<rect x="464.25" y="592.25" width="63.5" height="63.5" stroke="black" stroke-width="0.5"/>
<rect x="528.25" y="592.25" width="63.5" height="63.5" stroke="black" stroke-width="0.5"/>
<rect x="592.25" y="80.25" width="63.5" height="63.5" stroke="black" stroke-width="0.5"/>
<rect x="80.25" y="80.25" width="63.5" height="63.5" stroke="black" stroke-width="0.5"/>
<rect x="144.25" y="80.25" width="63.5" height="63.5" stroke="black" stroke-width="0.5"/>
<rect x="208.25" y="80.25" width="63.5" height="63.5" stroke="black" stroke-width="0.5"/>
<rect x="272.25" y="80.25" width="63.5" height="63.5" stroke="black" stroke-width="0.5"/>
<rect x="336.25" y="80.25" width="63.5" height="63.5" stroke="black" stroke-width="0.5"/>
<rect x="400.25" y="80.25" width="63.5" height="63.5" stroke="black" stroke-width="0.5"/>
<rect x="464.25" y="80.25" width="63.5" height="63.5" stroke="black" stroke-width="0.5"/>
<rect x="528.25" y="80.25" width="63.5" height="63.5" stroke="black" stroke-width="0.5"/>
<rect x="592.25" y="144.25" width="63.5" height="63.5" stroke="black" stroke-width="0.5"/>
<rect x="80.25" y="144.25" width="63.5" height="63.5" stroke="black" stroke-width="0.5"/>
<rect x="144.25" y="144.25" width="63.5" height="63.5" stroke="black" stroke-width="0.5"/>
<rect x="208.25" y="144.25" width="63.5" height="63.5" stroke="black" stroke-width="0.5"/>
<rect x="272.25" y="144.25" width="63.5" height="63.5" stroke="black" stroke-width="0.5"/>
<rect x="336.25" y="144.25" width="63.5" height="63.5" stroke="black" stroke-width="0.5"/>
<rect x="400.25" y="144.25" width="63.5" height="63.5" stroke="black" stroke-width="0.5"/>
<rect x="464.25" y="144.25" width="63.5" height="63.5" stroke="black" stroke-width="0.5"/>
<rect x="528.25" y="144.25" width="63.5" height="63.5" stroke="black" stroke-width="0.5"/>
<rect x="592.25" y="208.25" width="63.5" height="63.5" stroke="black" stroke-width="0.5"/>
<rect x="80.25" y="208.25" width="63.5" height="63.5" stroke="black" stroke-width="0.5"/>
<rect x="144.25" y="208.25" width="63.5" height="63.5" stroke="black" stroke-width="0.5"/>
<rect x="208.25" y="208.25" width="63.5" height="63.5" stroke="black" stroke-width="0.5"/>
<rect x="272.25" y="208.25" width="63.5" height="63.5" stroke="black" stroke-width="0.5"/>
<rect x="336.25" y="208.25" width="63.5" height="63.5" stroke="black" stroke-width="0.5"/>
<rect x="400.25" y="208.25" width="63.5" height="63.5" stroke="black" stroke-width="0.5"/>
<rect x="464.25" y="208.25" width="63.5" height="63.5" stroke="black" stroke-width="0.5"/>
<rect x="528.25" y="208.25" width="63.5" height="63.5" stroke="black" stroke-width="0.5"/>
<rect x="592.25" y="272.25" width="63.5" height="63.5" stroke="black" stroke-width="0.5"/>
<rect x="80.25" y="272.25" width="63.5" height="63.5" stroke="black" stroke-width="0.5"/>
<rect x="144.25" y="272.25" width="63.5" height="63.5" stroke="black" stroke-width="0.5"/>
<rect x="208.25" y="272.25" width="63.5" height="63.5" stroke="black" stroke-width="0.5"/>
<rect x="272.25" y="272.25" width="63.5" height="63.5" stroke="black" stroke-width="0.5"/>
<rect x="336.25" y="272.25" width="63.5" height="63.5" stroke="black" stroke-width="0.5"/>
<rect x="400.25" y="272.25" width="63.5" height="63.5" stroke="black" stroke-width="0.5"/>
<rect x="464.25" y="272.25" width="63.5" height="63.5" stroke="black" stroke-width="0.5"/>
<rect x="528.25" y="272.25" width="63.5" height="63.5" stroke="black" stroke-width="0.5"/>
<rect x="592.25" y="336.25" width="63.5" height="63.5" stroke="black" stroke-width="0.5"/>
<rect x="80.25" y="336.25" width="63.5" height="63.5" stroke="black" stroke-width="0.5"/>
<rect x="144.25" y="336.25" width="63.5" height="63.5" stroke="black" stroke-width="0.5"/>
<rect x="208.25" y="336.25" width="63.5" height="63.5" stroke="black" stroke-width="0.5"/>
<rect x="272.25" y="336.25" width="63.5" height="63.5" stroke="black" stroke-width="0.5"/>
<rect x="336.25" y="336.25" width="63.5" height="63.5" stroke="black" stroke-width="0.5"/>
<rect x="400.25" y="336.25" width="63.5" height="63.5" stroke="black" stroke-width="0.5"/>
<rect x="464.25" y="336.25" width="63.5" height="63.5" stroke="black" stroke-width="0.5"/>
<rect x="528.25" y="336.25" width="63.5" height="63.5" stroke="black" stroke-width="0.5"/>
<rect x="592.25" y="400.25" width="63.5" height="63.5" stroke="black" stroke-width="0.5"/>
<rect x="80.25" y="400.25" width="63.5" height="63.5" stroke="black" stroke-width="0.5"/>
<rect x="144.25" y="400.25" width="63.5" height="63.5" stroke="black" stroke-width="0.5"/>
<rect x="208.25" y="400.25" width="63.5" height="63.5" stroke="black" stroke-width="0.5"/>
<rect x="272.25" y="400.25" width="63.5" height="63.5" stroke="black" stroke-width="0.5"/>
<rect x="336.25" y="400.25" width="63.5" height="63.5" stroke="black" stroke-width="0.5"/>
<rect x="400.25" y="400.25" width="63.5" height="63.5" stroke="black" stroke-width="0.5"/>
<rect x="464.25" y="400.25" width="63.5" height="63.5" stroke="black" stroke-width="0.5"/>
<rect x="528.25" y="400.25" width="63.5" height="63.5" stroke="black" stroke-width="0.5"/>
<rect x="592.25" y="464.25" width="63.5" height="63.5" stroke="black" stroke-width="0.5"/>
<rect x="80.25" y="464.25" width="63.5" height="63.5" stroke="black" stroke-width="0.5"/>
<rect x="144.25" y="464.25" width="63.5" height="63.5" stroke="black" stroke-width="0.5"/>
<rect x="208.25" y="464.25" width="63.5" height="63.5" stroke="black" stroke-width="0.5"/>
<rect x="272.25" y="464.25" width="63.5" height="63.5" stroke="black" stroke-width="0.5"/>
<rect x="336.25" y="464.25" width="63.5" height="63.5" stroke="black" stroke-width="0.5"/>
<rect x="400.25" y="464.25" width="63.5" height="63.5" stroke="black" stroke-width="0.5"/>
<rect x="464.25" y="464.25" width="63.5" height="63.5" stroke="black" stroke-width="0.5"/>
<rect x="528.25" y="464.25" width="63.5" height="63.5" stroke="black" stroke-width="0.5"/>
<rect x="592.25" y="528.25" width="63.5" height="63.5" stroke="black" stroke-width="0.5"/>
<rect x="80.25" y="528.25" width="63.5" height="63.5" stroke="black" stroke-width="0.5"/>
<rect x="144.25" y="528.25" width="63.5" height="63.5" stroke="black" stroke-width="0.5"/>
<rect x="208.25" y="528.25" width="63.5" height="63.5" stroke="black" stroke-width="0.5"/>
<rect x="272.25" y="528.25" width="63.5" height="63.5" stroke="black" stroke-width="0.5"/>
<rect x="336.25" y="528.25" width="63.5" height="63.5" stroke="black" stroke-width="0.5"/>
<rect x="400.25" y="528.25" width="63.5" height="63.5" stroke="black" stroke-width="0.5"/>
<rect x="464.25" y="528.25" width="63.5" height="63.5" stroke="black" stroke-width="0.5"/>
<rect x="528.25" y="528.25" width="63.5" height="63.5" stroke="black" stroke-width="0.5"/>
<rect x="498.521" y="394.92" width="181.841" height="126.087" transform="rotate(-30 498.521 394.92)" fill="#D315EC"/>
</svg>
