<svg width="1216" height="1216" viewBox="0 0 1216 1216" fill="none" xmlns="http://www.w3.org/2000/svg">
<g clip-path="url(#clip0_5208_567)">
<rect width="1216" height="1216" fill="white"/>
<rect x="32.5" y="32.5" width="127" height="127" stroke="black"/>
<rect x="160.5" y="32.5" width="127" height="127" stroke="black"/>
<rect x="288.5" y="32.5" width="127" height="127" stroke="black"/>
<rect x="416.5" y="32.5" width="127" height="127" stroke="black"/>
<rect x="544.5" y="32.5" width="127" height="127" stroke="black"/>
<rect x="672.5" y="32.5" width="127" height="127" stroke="black"/>
<rect x="800.5" y="32.5" width="127" height="127" stroke="black"/>
<rect x="928.5" y="32.5" width="127" height="127" stroke="black"/>
<rect x="1056.5" y="32.5" width="127" height="127" stroke="black"/>
<rect x="32.5" y="160.5" width="127" height="127" stroke="black"/>
<rect x="160.5" y="160.5" width="127" height="127" stroke="black"/>
<rect x="288.5" y="160.5" width="127" height="127" stroke="black"/>
<rect x="416.5" y="160.5" width="127" height="127" stroke="black"/>
<rect x="544.5" y="160.5" width="127" height="127" stroke="black"/>
<rect x="672.5" y="160.5" width="127" height="127" stroke="black"/>
<rect x="800.5" y="160.5" width="127" height="127" stroke="black"/>
<rect x="928.5" y="160.5" width="127" height="127" stroke="black"/>
<rect x="1056.5" y="160.5" width="127" height="127" stroke="black"/>
<rect x="32.5" y="288.5" width="127" height="127" stroke="black"/>
<rect x="160.5" y="288.5" width="127" height="127" stroke="black"/>
<rect x="288.5" y="288.5" width="127" height="127" stroke="black"/>
<rect x="416.5" y="288.5" width="127" height="127" stroke="black"/>
<rect x="544.5" y="288.5" width="127" height="127" stroke="black"/>
<rect x="672.5" y="288.5" width="127" height="127" stroke="black"/>
<rect x="800.5" y="288.5" width="127" height="127" stroke="black"/>
<rect x="928.5" y="288.5" width="127" height="127" stroke="black"/>
<rect x="1056.5" y="288.5" width="127" height="127" stroke="black"/>
<rect x="32.5" y="416.5" width="127" height="127" stroke="black"/>
<rect x="160.5" y="416.5" width="127" height="127" stroke="black"/>
<rect x="288.5" y="416.5" width="127" height="127" stroke="black"/>
<rect x="416.5" y="416.5" width="127" height="127" stroke="black"/>
<rect x="544.5" y="416.5" width="127" height="127" stroke="black"/>
<rect x="672.5" y="416.5" width="127" height="127" stroke="black"/>
<rect x="800.5" y="416.5" width="127" height="127" stroke="black"/>
<rect x="928.5" y="416.5" width="127" height="127" stroke="black"/>
<rect x="1056.5" y="416.5" width="127" height="127" stroke="black"/>
<rect x="32.5" y="544.5" width="127" height="127" stroke="black"/>
<rect x="160.5" y="544.5" width="127" height="127" stroke="black"/>
<rect x="288.5" y="544.5" width="127" height="127" stroke="black"/>
<rect x="416.5" y="544.5" width="127" height="127" stroke="black"/>
<rect x="544.5" y="544.5" width="127" height="127" stroke="black"/>
<rect x="672.5" y="544.5" width="127" height="127" stroke="black"/>
<rect x="800.5" y="544.5" width="127" height="127" stroke="black"/>
<rect x="928.5" y="544.5" width="127" height="127" stroke="black"/>
<rect x="1056.5" y="544.5" width="127" height="127" stroke="black"/>
<rect x="32.5" y="672.5" width="127" height="127" stroke="black"/>
<rect x="160.5" y="672.5" width="127" height="127" stroke="black"/>
<rect x="288.5" y="672.5" width="127" height="127" stroke="black"/>
<rect x="416.5" y="672.5" width="127" height="127" stroke="black"/>
<rect x="544.5" y="672.5" width="127" height="127" stroke="black"/>
<rect x="672.5" y="672.5" width="127" height="127" stroke="black"/>
<rect x="800.5" y="672.5" width="127" height="127" stroke="black"/>
<rect x="928.5" y="672.5" width="127" height="127" stroke="black"/>
<rect x="1056.5" y="672.5" width="127" height="127" stroke="black"/>
<rect x="32.5" y="800.5" width="127" height="127" stroke="black"/>
<rect x="160.5" y="800.5" width="127" height="127" stroke="black"/>
<rect x="288.5" y="800.5" width="127" height="127" stroke="black"/>
<rect x="416.5" y="800.5" width="127" height="127" stroke="black"/>
<rect x="544.5" y="800.5" width="127" height="127" stroke="black"/>
<rect x="672.5" y="800.5" width="127" height="127" stroke="black"/>
<rect x="800.5" y="800.5" width="127" height="127" stroke="black"/>
<rect x="928.5" y="800.5" width="127" height="127" stroke="black"/>
<rect x="1056.5" y="800.5" width="127" height="127" stroke="black"/>
<rect x="32.5" y="928.5" width="127" height="127" stroke="black"/>
<rect x="160.5" y="928.5" width="127" height="127" stroke="black"/>
<rect x="288.5" y="928.5" width="127" height="127" stroke="black"/>
<rect x="416.5" y="928.5" width="127" height="127" stroke="black"/>
<rect x="544.5" y="928.5" width="127" height="127" stroke="black"/>
<rect x="672.5" y="928.5" width="127" height="127" stroke="black"/>
<rect x="800.5" y="928.5" width="127" height="127" stroke="black"/>
<rect x="928.5" y="928.5" width="127" height="127" stroke="black"/>
<rect x="1056.5" y="928.5" width="127" height="127" stroke="black"/>
<rect x="32.5" y="1056.5" width="127" height="127" stroke="black"/>
<rect x="160.5" y="1056.5" width="127" height="127" stroke="black"/>
<rect x="288.5" y="1056.5" width="127" height="127" stroke="black"/>
<rect x="416.5" y="1056.5" width="127" height="127" stroke="black"/>
<rect x="544.5" y="1056.5" width="127" height="127" stroke="black"/>
<rect x="672.5" y="1056.5" width="127" height="127" stroke="black"/>
<rect x="800.5" y="1056.5" width="127" height="127" stroke="black"/>
<rect x="928.5" y="1056.5" width="127" height="127" stroke="black"/>
<rect x="1056.5" y="1056.5" width="127" height="127" stroke="black"/>
<rect x="875.531" y="646.298" width="282.289" height="222.336" transform="rotate(-30 875.531 646.298)" fill="#4F378B"/>
</g>
<defs>
<clipPath id="clip0_5208_567">
<rect width="1216" height="1216" fill="white"/>
</clipPath>
</defs>
</svg>
