<svg width="672" height="672" viewBox="0 0 672 672" fill="none" xmlns="http://www.w3.org/2000/svg">
<g clip-path="url(#clip0_5208_567)">
<rect width="672" height="672" fill="white"/>
<rect x="560.25" y="560.25" width="63.5" height="63.5" stroke="#FF0000" stroke-width="0.5"/>
<rect x="48.25" y="560.25" width="63.5" height="63.5" stroke="#FF0000" stroke-width="0.5"/>
<rect x="112.25" y="560.25" width="63.5" height="63.5" stroke="#FF0000" stroke-width="0.5"/>
<rect x="176.25" y="560.25" width="63.5" height="63.5" stroke="#FF0000" stroke-width="0.5"/>
<rect x="240.25" y="560.25" width="63.5" height="63.5" stroke="#FF0000" stroke-width="0.5"/>
<rect x="304.25" y="560.25" width="63.5" height="63.5" stroke="#FF0000" stroke-width="0.5"/>
<rect x="368.25" y="560.25" width="63.5" height="63.5" stroke="#FF0000" stroke-width="0.5"/>
<rect x="432.25" y="560.25" width="63.5" height="63.5" stroke="#FF0000" stroke-width="0.5"/>
<rect x="496.25" y="560.25" width="63.5" height="63.5" stroke="#FF0000" stroke-width="0.5"/>
<rect x="560.25" y="48.25" width="63.5" height="63.5" stroke="#FF0000" stroke-width="0.5"/>
<rect x="48.25" y="48.25" width="63.5" height="63.5" stroke="#FF0000" stroke-width="0.5"/>
<rect x="112.25" y="48.25" width="63.5" height="63.5" stroke="#FF0000" stroke-width="0.5"/>
<rect x="176.25" y="48.25" width="63.5" height="63.5" stroke="#FF0000" stroke-width="0.5"/>
<rect x="240.25" y="48.25" width="63.5" height="63.5" stroke="#FF0000" stroke-width="0.5"/>
<rect x="304.25" y="48.25" width="63.5" height="63.5" stroke="#FF0000" stroke-width="0.5"/>
<rect x="368.25" y="48.25" width="63.5" height="63.5" stroke="#FF0000" stroke-width="0.5"/>
<rect x="432.25" y="48.25" width="63.5" height="63.5" stroke="#FF0000" stroke-width="0.5"/>
<rect x="496.25" y="48.25" width="63.5" height="63.5" stroke="#FF0000" stroke-width="0.5"/>
<rect x="560.25" y="112.25" width="63.5" height="63.5" stroke="#FF0000" stroke-width="0.5"/>
<rect x="48.25" y="112.25" width="63.5" height="63.5" stroke="#FF0000" stroke-width="0.5"/>
<rect x="112.25" y="112.25" width="63.5" height="63.5" stroke="#FF0000" stroke-width="0.5"/>
<rect x="176.25" y="112.25" width="63.5" height="63.5" stroke="#FF0000" stroke-width="0.5"/>
<rect x="240.25" y="112.25" width="63.5" height="63.5" stroke="#FF0000" stroke-width="0.5"/>
<rect x="304.25" y="112.25" width="63.5" height="63.5" stroke="#FF0000" stroke-width="0.5"/>
<rect x="368.25" y="112.25" width="63.5" height="63.5" stroke="#FF0000" stroke-width="0.5"/>
<rect x="432.25" y="112.25" width="63.5" height="63.5" stroke="#FF0000" stroke-width="0.5"/>
<rect x="496.25" y="112.25" width="63.5" height="63.5" stroke="#FF0000" stroke-width="0.5"/>
<rect x="560.25" y="176.25" width="63.5" height="63.5" stroke="#FF0000" stroke-width="0.5"/>
<rect x="48.25" y="176.25" width="63.5" height="63.5" stroke="#FF0000" stroke-width="0.5"/>
<rect x="112.25" y="176.25" width="63.5" height="63.5" stroke="#FF0000" stroke-width="0.5"/>
<rect x="176.25" y="176.25" width="63.5" height="63.5" stroke="#FF0000" stroke-width="0.5"/>
<rect x="240.25" y="176.25" width="63.5" height="63.5" stroke="#FF0000" stroke-width="0.5"/>
<rect x="304.25" y="176.25" width="63.5" height="63.5" stroke="#FF0000" stroke-width="0.5"/>
<rect x="368.25" y="176.25" width="63.5" height="63.5" stroke="#FF0000" stroke-width="0.5"/>
<rect x="432.25" y="176.25" width="63.5" height="63.5" stroke="#FF0000" stroke-width="0.5"/>
<rect x="496.25" y="176.25" width="63.5" height="63.5" stroke="#FF0000" stroke-width="0.5"/>
<rect x="560.25" y="240.25" width="63.5" height="63.5" stroke="#FF0000" stroke-width="0.5"/>
<rect x="48.25" y="240.25" width="63.5" height="63.5" stroke="#FF0000" stroke-width="0.5"/>
<rect x="112.25" y="240.25" width="63.5" height="63.5" stroke="#FF0000" stroke-width="0.5"/>
<rect x="176.25" y="240.25" width="63.5" height="63.5" stroke="#FF0000" stroke-width="0.5"/>
<rect x="240.25" y="240.25" width="63.5" height="63.5" stroke="#FF0000" stroke-width="0.5"/>
<rect x="304.25" y="240.25" width="63.5" height="63.5" stroke="#FF0000" stroke-width="0.5"/>
<rect x="368.25" y="240.25" width="63.5" height="63.5" stroke="#FF0000" stroke-width="0.5"/>
<rect x="432.25" y="240.25" width="63.5" height="63.5" stroke="#FF0000" stroke-width="0.5"/>
<rect x="496.25" y="240.25" width="63.5" height="63.5" stroke="#FF0000" stroke-width="0.5"/>
<rect x="560.25" y="304.25" width="63.5" height="63.5" stroke="#FF0000" stroke-width="0.5"/>
<rect x="48.25" y="304.25" width="63.5" height="63.5" stroke="#FF0000" stroke-width="0.5"/>
<rect x="112.25" y="304.25" width="63.5" height="63.5" stroke="#FF0000" stroke-width="0.5"/>
<rect x="176.25" y="304.25" width="63.5" height="63.5" stroke="#FF0000" stroke-width="0.5"/>
<rect x="240.25" y="304.25" width="63.5" height="63.5" stroke="#FF0000" stroke-width="0.5"/>
<rect x="304.25" y="304.25" width="63.5" height="63.5" stroke="#FF0000" stroke-width="0.5"/>
<rect x="368.25" y="304.25" width="63.5" height="63.5" stroke="#FF0000" stroke-width="0.5"/>
<rect x="432.25" y="304.25" width="63.5" height="63.5" stroke="#FF0000" stroke-width="0.5"/>
<rect x="496.25" y="304.25" width="63.5" height="63.5" stroke="#FF0000" stroke-width="0.5"/>
<rect x="560.25" y="368.25" width="63.5" height="63.5" stroke="#FF0000" stroke-width="0.5"/>
<rect x="48.25" y="368.25" width="63.5" height="63.5" stroke="#FF0000" stroke-width="0.5"/>
<rect x="112.25" y="368.25" width="63.5" height="63.5" stroke="#FF0000" stroke-width="0.5"/>
<rect x="176.25" y="368.25" width="63.5" height="63.5" stroke="#FF0000" stroke-width="0.5"/>
<rect x="240.25" y="368.25" width="63.5" height="63.5" stroke="#FF0000" stroke-width="0.5"/>
<rect x="304.25" y="368.25" width="63.5" height="63.5" stroke="#FF0000" stroke-width="0.5"/>
<rect x="368.25" y="368.25" width="63.5" height="63.5" stroke="#FF0000" stroke-width="0.5"/>
<rect x="432.25" y="368.25" width="63.5" height="63.5" stroke="#FF0000" stroke-width="0.5"/>
<rect x="496.25" y="368.25" width="63.5" height="63.5" stroke="#FF0000" stroke-width="0.5"/>
<rect x="560.25" y="432.25" width="63.5" height="63.5" stroke="#FF0000" stroke-width="0.5"/>
<rect x="48.25" y="432.25" width="63.5" height="63.5" stroke="#FF0000" stroke-width="0.5"/>
<rect x="112.25" y="432.25" width="63.5" height="63.5" stroke="#FF0000" stroke-width="0.5"/>
<rect x="176.25" y="432.25" width="63.5" height="63.5" stroke="#FF0000" stroke-width="0.5"/>
<rect x="240.25" y="432.25" width="63.5" height="63.5" stroke="#FF0000" stroke-width="0.5"/>
<rect x="304.25" y="432.25" width="63.5" height="63.5" stroke="#FF0000" stroke-width="0.5"/>
<rect x="368.25" y="432.25" width="63.5" height="63.5" stroke="#FF0000" stroke-width="0.5"/>
<rect x="432.25" y="432.25" width="63.5" height="63.5" stroke="#FF0000" stroke-width="0.5"/>
<rect x="496.25" y="432.25" width="63.5" height="63.5" stroke="#FF0000" stroke-width="0.5"/>
<rect x="560.25" y="496.25" width="63.5" height="63.5" stroke="#FF0000" stroke-width="0.5"/>
<rect x="48.25" y="496.25" width="63.5" height="63.5" stroke="#FF0000" stroke-width="0.5"/>
<rect x="112.25" y="496.25" width="63.5" height="63.5" stroke="#FF0000" stroke-width="0.5"/>
<rect x="176.25" y="496.25" width="63.5" height="63.5" stroke="#FF0000" stroke-width="0.5"/>
<rect x="240.25" y="496.25" width="63.5" height="63.5" stroke="#FF0000" stroke-width="0.5"/>
<rect x="304.25" y="496.25" width="63.5" height="63.5" stroke="#FF0000" stroke-width="0.5"/>
<rect x="368.25" y="496.25" width="63.5" height="63.5" stroke="#FF0000" stroke-width="0.5"/>
<rect x="432.25" y="496.25" width="63.5" height="63.5" stroke="#FF0000" stroke-width="0.5"/>
<rect x="496.25" y="496.25" width="63.5" height="63.5" stroke="#FF0000" stroke-width="0.5"/>
<rect x="467.204" y="363.103" width="180.841" height="125.087" transform="rotate(-30 467.204 363.103)" fill="#D315EC" stroke="#FF0000"/>
</g>
<defs>
<clipPath id="clip0_5208_567">
<rect width="672" height="672" fill="white"/>
</clipPath>
</defs>
</svg>
