<svg width="672" height="672" viewBox="0 0 672 672" fill="none" xmlns="http://www.w3.org/2000/svg">
<g clip-path="url(#clip0_5208_567)">
<rect width="672" height="672" fill="white"/>
<rect x="552.25" y="552.25" width="63.5" height="63.5" stroke="black" stroke-width="0.5"/>
<rect x="40.25" y="552.25" width="63.5" height="63.5" stroke="black" stroke-width="0.5"/>
<rect x="104.25" y="552.25" width="63.5" height="63.5" stroke="black" stroke-width="0.5"/>
<rect x="168.25" y="552.25" width="63.5" height="63.5" stroke="black" stroke-width="0.5"/>
<rect x="232.25" y="552.25" width="63.5" height="63.5" stroke="black" stroke-width="0.5"/>
<rect x="296.25" y="552.25" width="63.5" height="63.5" stroke="black" stroke-width="0.5"/>
<rect x="360.25" y="552.25" width="63.5" height="63.5" stroke="black" stroke-width="0.5"/>
<rect x="424.25" y="552.25" width="63.5" height="63.5" stroke="black" stroke-width="0.5"/>
<rect x="488.25" y="552.25" width="63.5" height="63.5" stroke="black" stroke-width="0.5"/>
<rect x="552.25" y="40.25" width="63.5" height="63.5" stroke="black" stroke-width="0.5"/>
<rect x="40.25" y="40.25" width="63.5" height="63.5" stroke="black" stroke-width="0.5"/>
<rect x="104.25" y="40.25" width="63.5" height="63.5" stroke="black" stroke-width="0.5"/>
<rect x="168.25" y="40.25" width="63.5" height="63.5" stroke="black" stroke-width="0.5"/>
<rect x="232.25" y="40.25" width="63.5" height="63.5" stroke="black" stroke-width="0.5"/>
<rect x="296.25" y="40.25" width="63.5" height="63.5" stroke="black" stroke-width="0.5"/>
<rect x="360.25" y="40.25" width="63.5" height="63.5" stroke="black" stroke-width="0.5"/>
<rect x="424.25" y="40.25" width="63.5" height="63.5" stroke="black" stroke-width="0.5"/>
<rect x="488.25" y="40.25" width="63.5" height="63.5" stroke="black" stroke-width="0.5"/>
<rect x="552.25" y="104.25" width="63.5" height="63.5" stroke="black" stroke-width="0.5"/>
<rect x="40.25" y="104.25" width="63.5" height="63.5" stroke="black" stroke-width="0.5"/>
<rect x="104.25" y="104.25" width="63.5" height="63.5" stroke="black" stroke-width="0.5"/>
<rect x="168.25" y="104.25" width="63.5" height="63.5" stroke="black" stroke-width="0.5"/>
<rect x="232.25" y="104.25" width="63.5" height="63.5" stroke="black" stroke-width="0.5"/>
<rect x="296.25" y="104.25" width="63.5" height="63.5" stroke="black" stroke-width="0.5"/>
<rect x="360.25" y="104.25" width="63.5" height="63.5" stroke="black" stroke-width="0.5"/>
<rect x="424.25" y="104.25" width="63.5" height="63.5" stroke="black" stroke-width="0.5"/>
<rect x="488.25" y="104.25" width="63.5" height="63.5" stroke="black" stroke-width="0.5"/>
<rect x="552.25" y="168.25" width="63.5" height="63.5" stroke="black" stroke-width="0.5"/>
<rect x="40.25" y="168.25" width="63.5" height="63.5" stroke="black" stroke-width="0.5"/>
<rect x="104.25" y="168.25" width="63.5" height="63.5" stroke="black" stroke-width="0.5"/>
<rect x="168.25" y="168.25" width="63.5" height="63.5" stroke="black" stroke-width="0.5"/>
<rect x="232.25" y="168.25" width="63.5" height="63.5" stroke="black" stroke-width="0.5"/>
<rect x="296.25" y="168.25" width="63.5" height="63.5" stroke="black" stroke-width="0.5"/>
<rect x="360.25" y="168.25" width="63.5" height="63.5" stroke="black" stroke-width="0.5"/>
<rect x="424.25" y="168.25" width="63.5" height="63.5" stroke="black" stroke-width="0.5"/>
<rect x="488.25" y="168.25" width="63.5" height="63.5" stroke="black" stroke-width="0.5"/>
<rect x="552.25" y="232.25" width="63.5" height="63.5" stroke="black" stroke-width="0.5"/>
<rect x="40.25" y="232.25" width="63.5" height="63.5" stroke="black" stroke-width="0.5"/>
<rect x="104.25" y="232.25" width="63.5" height="63.5" stroke="black" stroke-width="0.5"/>
<rect x="168.25" y="232.25" width="63.5" height="63.5" stroke="black" stroke-width="0.5"/>
<rect x="232.25" y="232.25" width="63.5" height="63.5" stroke="black" stroke-width="0.5"/>
<rect x="296.25" y="232.25" width="63.5" height="63.5" stroke="black" stroke-width="0.5"/>
<rect x="360.25" y="232.25" width="63.5" height="63.5" stroke="black" stroke-width="0.5"/>
<rect x="424.25" y="232.25" width="63.5" height="63.5" stroke="black" stroke-width="0.5"/>
<rect x="488.25" y="232.25" width="63.5" height="63.5" stroke="black" stroke-width="0.5"/>
<rect x="552.25" y="296.25" width="63.5" height="63.5" stroke="black" stroke-width="0.5"/>
<rect x="40.25" y="296.25" width="63.5" height="63.5" stroke="black" stroke-width="0.5"/>
<rect x="104.25" y="296.25" width="63.5" height="63.5" stroke="black" stroke-width="0.5"/>
<rect x="168.25" y="296.25" width="63.5" height="63.5" stroke="black" stroke-width="0.5"/>
<rect x="232.25" y="296.25" width="63.5" height="63.5" stroke="black" stroke-width="0.5"/>
<rect x="296.25" y="296.25" width="63.5" height="63.5" stroke="black" stroke-width="0.5"/>
<rect x="360.25" y="296.25" width="63.5" height="63.5" stroke="black" stroke-width="0.5"/>
<rect x="424.25" y="296.25" width="63.5" height="63.5" stroke="black" stroke-width="0.5"/>
<rect x="488.25" y="296.25" width="63.5" height="63.5" stroke="black" stroke-width="0.5"/>
<rect x="552.25" y="360.25" width="63.5" height="63.5" stroke="black" stroke-width="0.5"/>
<rect x="40.25" y="360.25" width="63.5" height="63.5" stroke="black" stroke-width="0.5"/>
<rect x="104.25" y="360.25" width="63.5" height="63.5" stroke="black" stroke-width="0.5"/>
<rect x="168.25" y="360.25" width="63.5" height="63.5" stroke="black" stroke-width="0.5"/>
<rect x="232.25" y="360.25" width="63.5" height="63.5" stroke="black" stroke-width="0.5"/>
<rect x="296.25" y="360.25" width="63.5" height="63.5" stroke="black" stroke-width="0.5"/>
<rect x="360.25" y="360.25" width="63.5" height="63.5" stroke="black" stroke-width="0.5"/>
<rect x="424.25" y="360.25" width="63.5" height="63.5" stroke="black" stroke-width="0.5"/>
<rect x="488.25" y="360.25" width="63.5" height="63.5" stroke="black" stroke-width="0.5"/>
<rect x="552.25" y="424.25" width="63.5" height="63.5" stroke="black" stroke-width="0.5"/>
<rect x="40.25" y="424.25" width="63.5" height="63.5" stroke="black" stroke-width="0.5"/>
<rect x="104.25" y="424.25" width="63.5" height="63.5" stroke="black" stroke-width="0.5"/>
<rect x="168.25" y="424.25" width="63.5" height="63.5" stroke="black" stroke-width="0.5"/>
<rect x="232.25" y="424.25" width="63.5" height="63.5" stroke="black" stroke-width="0.5"/>
<rect x="296.25" y="424.25" width="63.5" height="63.5" stroke="black" stroke-width="0.5"/>
<rect x="360.25" y="424.25" width="63.5" height="63.5" stroke="black" stroke-width="0.5"/>
<rect x="424.25" y="424.25" width="63.5" height="63.5" stroke="black" stroke-width="0.5"/>
<rect x="488.25" y="424.25" width="63.5" height="63.5" stroke="black" stroke-width="0.5"/>
<rect x="552.25" y="488.25" width="63.5" height="63.5" stroke="black" stroke-width="0.5"/>
<rect x="40.25" y="488.25" width="63.5" height="63.5" stroke="black" stroke-width="0.5"/>
<rect x="104.25" y="488.25" width="63.5" height="63.5" stroke="black" stroke-width="0.5"/>
<rect x="168.25" y="488.25" width="63.5" height="63.5" stroke="black" stroke-width="0.5"/>
<rect x="232.25" y="488.25" width="63.5" height="63.5" stroke="black" stroke-width="0.5"/>
<rect x="296.25" y="488.25" width="63.5" height="63.5" stroke="black" stroke-width="0.5"/>
<rect x="360.25" y="488.25" width="63.5" height="63.5" stroke="black" stroke-width="0.5"/>
<rect x="424.25" y="488.25" width="63.5" height="63.5" stroke="black" stroke-width="0.5"/>
<rect x="488.25" y="488.25" width="63.5" height="63.5" stroke="black" stroke-width="0.5"/>
<rect x="458.521" y="354.92" width="181.841" height="126.087" transform="rotate(-30 458.521 354.92)" fill="#D315EC"/>
</g>
<defs>
<clipPath id="clip0_5208_567">
<rect width="672" height="672" fill="white"/>
</clipPath>
</defs>
</svg>
